<?xml version="1.0" encoding="UTF-8"?>
<svg width="410px" height="350px" viewBox="0 0 410 350" version="1.1" xmlns="http://www.w3.org/2000/svg" xmlns:xlink="http://www.w3.org/1999/xlink">
    <!-- Generator: Sketch 55.1 (78136) - https://sketchapp.com -->
    <title>Group 23 Copy 2</title>
    <desc>Created with Sketch.</desc>
    <g id="Welcome" stroke="none" stroke-width="1" fill="none" fill-rule="evenodd">
        <g id="Group-24-Copy" transform="translate(-15.000000, -17.000000)">
            <g id="Group-23-Copy-2" transform="translate(20.000000, 22.000000)">
                <path d="M244.733874,268.64194 C241.716684,266.817729 238.68905,264.915886 235.650974,262.936412 C209.626209,245.979844 177.350297,241.244289 138.823237,248.729747 C133.368993,240.033911 128.374431,230.69362 123.960553,220.77989 C113.722011,197.783748 107.867111,174.530265 106.043978,152.73485 C122.071799,130.537331 144.46057,109.851521 172.920864,97.1801816 C201.886038,84.2840551 232.812252,81.6161369 260.401084,84.8162673 C275.162672,100.659048 288.330607,120.369749 298.447736,143.093191 C308.917681,166.609073 314.803594,190.394061 316.481752,212.613784 C300.052969,234.142558 277.23774,254.337664 248.57388,267.099637 C247.296386,267.668413 246.016259,268.181135 244.733874,268.64194 Z M101.318436,259.169257 C89.9934693,255.705794 82.0244879,250.748908 78.8433494,243.603954 C72.6949972,229.794529 77.7941444,201.536255 93.5275478,172.607242 C96.6645732,190.467739 102.20787,208.801463 110.257372,226.88094 C114.217213,235.774889 118.628609,244.259287 123.419239,252.285025 C116.25145,254.190439 108.884516,256.485183 101.318436,259.169257 Z M283.617344,89.0204821 C314.894867,96.7945758 338.634286,111.65329 344.685078,125.243591 C350.799049,138.975796 345.292334,165.875781 329.261742,193.504369 C326.203033,174.939419 320.537093,155.827801 312.150918,136.992142 C304.247038,119.239737 294.544139,103.119004 283.617331,89.0204658 L283.617344,89.0204821 Z M137.00037,209.501008 L148.081981,234.390713 C148.755884,235.904325 150.529216,236.585043 152.042827,235.91114 L153.973297,235.051639 C155.445928,234.395982 156.137171,232.693762 155.538594,231.197022 L150.159376,217.746307 C149.560799,216.249566 150.252042,214.547347 151.724673,213.891689 L158.4251,210.908467 C159.938712,210.234563 161.712043,210.915281 162.385947,212.428893 L168.179981,225.442507 C168.853884,226.956119 170.627216,227.636837 172.140827,226.962934 L173.967918,226.14946 C175.48153,225.475557 176.162248,223.702226 175.488345,222.188614 L169.69431,209.175 C169.020407,207.661388 169.701125,205.888057 171.214737,205.214154 L177.609555,202.366997 C179.123167,201.693094 180.896498,202.373812 181.570401,203.887424 L187.364436,216.901038 C188.038339,218.414649 189.81167,219.095368 191.325282,218.421464 L193.152373,217.607991 C194.665985,216.934088 195.346703,215.160756 194.672799,213.647145 L188.878765,200.63353 C188.204862,199.119919 188.88558,197.346588 190.399191,196.672684 L195.880464,194.232264 C197.394076,193.558361 199.167407,194.239079 199.84131,195.752691 L205.635345,208.766305 C206.309248,210.279917 208.082579,210.960635 209.596191,210.286731 L211.423282,209.473258 C212.936894,208.799355 213.617612,207.026023 212.943708,205.512412 L207.149674,192.498798 C206.475771,190.985186 207.156489,189.211855 208.670101,188.537951 L215.978464,185.284058 C217.492076,184.610155 219.265407,185.290873 219.939311,186.804485 L225.733345,199.818099 C226.407248,201.33171 228.180579,202.012429 229.694191,201.338525 L231.521282,200.525052 C233.034894,199.851149 233.715612,198.077817 233.041709,196.564206 L227.247674,183.550591 C226.573771,182.03698 227.254489,180.263648 228.768101,179.589745 L236.076464,176.335852 C237.590076,175.661949 239.363407,176.342667 240.037311,177.856278 L245.831345,190.869893 C246.505248,192.383504 248.27858,193.064222 249.792191,192.390319 L251.619282,191.576846 C253.132894,190.902942 253.813612,189.129611 253.139709,187.615999 L247.345674,174.602385 C246.671771,173.088774 247.352489,171.315442 248.866101,170.641539 L255.260919,167.794383 C256.774531,167.120479 258.547862,167.801197 259.221765,169.314809 L265.0158,182.328423 C265.689703,183.842035 267.463034,184.522753 268.976646,183.84885 L270.803737,183.035376 C272.317348,182.361473 272.998067,180.588142 272.324163,179.07453 L266.530129,166.060916 C265.856226,164.547304 266.536944,162.773973 268.050555,162.10007 L274.445373,159.252913 C275.958985,158.57901 277.732316,159.259728 278.40622,160.773339 L284.200254,173.786954 C284.874157,175.300565 286.647489,175.981283 288.1611,175.30738 L289.988191,174.493907 C291.501803,173.820003 292.182521,172.046672 291.508618,170.53306 L274.300797,131.883662 C273.626893,130.37005 271.853562,129.689332 270.33995,130.363235 L268.512859,131.176708 C266.999248,131.850612 266.31853,133.623943 266.992433,135.137555 L271.898434,146.156612 C272.572337,147.670224 271.891619,149.443555 270.378007,150.117458 L263.983189,152.964615 C262.469577,153.638518 260.696246,152.9578 260.022343,151.444188 L255.116342,140.425131 C254.442439,138.911519 252.669107,138.230801 251.155496,138.904705 L249.328405,139.718178 C247.814793,140.392081 247.134075,142.165413 247.807978,143.679024 L252.713979,154.698082 C253.387882,156.211693 252.707164,157.985025 251.193552,158.658928 L244.798734,161.506084 C243.285123,162.179988 241.511791,161.49927 240.837888,159.985658 L235.931887,148.966601 C235.257984,147.452989 233.484653,146.772271 231.971041,147.446174 L230.14395,148.259647 C228.630339,148.933551 227.94962,150.706882 228.623524,152.220494 L233.529524,163.239551 C234.203428,164.753163 233.52271,166.526494 232.009098,167.200397 L224.700734,170.454291 C223.187123,171.128194 221.413791,170.447476 220.739888,168.933864 L215.833887,157.914807 C215.159984,156.401195 213.386653,155.720477 211.873041,156.39438 L210.04595,157.207854 C208.532339,157.881757 207.85162,159.655088 208.525524,161.1687 L213.431524,172.187757 C214.105428,173.701369 213.424709,175.4747 211.911098,176.148604 L204.602734,179.402497 C203.089122,180.0764 201.315791,179.395682 200.641888,177.88207 L195.735887,166.863013 C195.061984,165.349401 193.288653,164.668683 191.775041,165.342586 L189.94795,166.15606 C188.434338,166.829963 187.75362,168.603294 188.427524,170.116906 L193.333524,181.135963 C194.007427,182.649575 193.326709,184.422906 191.813098,185.09681 L186.331825,187.53723 C184.818213,188.211133 183.044882,187.530415 182.370979,186.016803 L177.464978,174.997746 C176.791075,173.484134 175.017744,172.803416 173.504132,173.477319 L171.677041,174.290793 C170.163429,174.964696 169.482711,176.738027 170.156615,178.251639 L175.062615,189.270696 C175.736518,190.784308 175.0558,192.557639 173.542189,193.231543 L167.14737,196.078699 C165.633759,196.752602 163.860427,196.071884 163.186524,194.558273 L158.280524,183.539215 C157.60662,182.025604 155.833289,181.344885 154.319677,182.018789 L152.492586,182.832262 C150.978975,183.506165 150.298257,185.279497 150.97216,186.793108 L155.87816,197.812166 C156.552064,199.325777 155.871346,201.099109 154.357734,201.773012 L147.04937,205.026905 C145.535759,205.700809 143.762427,205.02009 143.088524,203.506479 L138.182524,192.487421 C137.50862,190.97381 135.735289,190.293092 134.221677,190.966995 L132.394586,191.780468 C130.880975,192.454372 130.200257,194.227703 130.87416,195.741314 L137.00037,209.501008 Z M31.7543398,299.653302 C120.465422,249.61951 188.491385,240.025198 235.832227,270.870366 C283.17307,301.715534 327.978243,313.710638 370.247746,306.855678 C337.752386,326.859571 302.105631,327.962238 263.307479,310.163679 C250.82159,304.435808 230.370476,287.355722 206.959172,282.535838 C185.431438,278.103739 157.799335,286.02471 132.319463,284.083068 C111.078568,282.464448 77.55686,287.654526 31.7543398,299.653302 Z M80.8300562,325.068883 C148.848244,286.62519 200.096559,278.851967 234.575,301.749213 C269.053441,324.646459 303.85685,334.550064 338.985228,331.460029 C301.814842,349.987016 262.498563,349.447453 221.036392,329.841339 C179.574222,310.235224 132.838776,308.644406 80.8300562,325.068883 Z" id="Combined-Shape" fill="#FFFFFF"></path>
                <path d="M374.762396,297.327139 C390.838839,268.521717 400,235.33071 400,200 C400,89.54305 310.45695,0 200,0 C89.54305,0 0,89.54305 0,200 C0,231.956577 7.49490783,262.162624 20.822803,288.956222" id="Path" stroke="#FFFFFF" stroke-width="10" stroke-linecap="round" stroke-linejoin="round"></path>
            </g>
        </g>
    </g>
</svg>